<svg
	width="124"
	height="37"
	viewBox="0 0 124 37"
	fill="none"
	xmlns="http://www.w3.org/2000/svg"
>
	<path
		d="M82.5578 3.61385C81.5783 4.71812 80.6272 5.79322 79.6515 6.89554C79.4772 6.72834 79.3218 6.57476 79.1627 6.427C77.1923 4.58397 74.6857 4.62091 72.7532 6.50866C70.6426 8.57137 70.7791 11.6742 73.0658 13.5464C75.0988 15.2106 77.4405 15.0609 79.3237 13.2003C79.4317 13.0934 79.5416 12.9923 79.6553 12.8834C80.6329 13.9722 81.5916 15.0375 82.5825 16.1399C81.9667 16.8942 81.2164 17.5046 80.3885 18.0082C76.8967 20.1214 72.164 19.4701 69.2728 16.5267C65.4912 12.6774 65.8 6.05956 69.9208 2.63596C73.801 -0.587404 79.3541 -0.142199 82.5578 3.61385Z"
		fill="white"
	/>
	<path
		d="M118.347 12.24C118.413 12.2284 118.879 12.1137 118.97 12.0845C122.428 10.9705 122.657 5.19064 120.72 2.93351C119.559 1.58039 117.822 0.752197 116.297 0.752197H108.849L108.066 1.32183V18.6906H112.42V11.719H112.534L112.852 12.1662C113.604 13.078 114.616 14.6274 115.241 15.5081C117.536 18.7412 117.536 18.7412 117.536 18.7412H121.283H123C123 18.7431 119.828 14.3689 118.347 12.24ZM115.302 9.10222L112.422 9.1236C112.422 7.75494 112.422 6.55152 112.422 5.05066H115.302C116.507 5.05066 117.255 6.1452 117.25 7.04728C117.242 8.01545 116.336 9.10222 115.302 9.10222Z"
		fill="white"
	/>
	<path
		d="M60.385 13.313C60.368 11.6449 59.9398 9.49084 55.5481 7.99581C54.184 7.52922 53.2556 7.18122 52.9638 6.96931C52.7099 6.78462 52.4371 6.52994 52.3234 6.11001C52.3234 6.10807 52.3215 6.10418 52.3215 6.10223C52.0317 5.15933 52.9221 4.3253 53.8581 4.3253C54.7921 4.3253 55.55 5.14378 55.55 6.15278C55.55 6.15667 55.5481 6.16056 55.5481 6.16445C55.5538 6.23638 55.5557 6.30248 55.5557 6.35691C55.5557 6.44634 55.6371 6.51439 55.7243 6.49689L60.0838 5.64536C60.0838 5.64536 59.8034 3.91315 59.0986 2.75834C56.9349 -0.79358 51.5978 -0.886897 48.9472 2.31508C48.2766 3.12578 47.7896 4.05118 47.748 5.11656C47.6835 6.70491 47.909 8.05414 49.3432 9.26921C49.4133 9.32948 49.4872 9.38975 49.5649 9.44807C50.4705 10.1402 51.774 10.7351 52.907 11.2425L52.9089 11.2444C54.7542 12.0124 55.2752 12.4323 55.4363 12.9378C55.7337 13.869 54.8546 14.5514 54.0229 14.5514C52.8426 14.5514 52.1681 13.7174 52.0241 12.549C52.0146 12.4673 51.9426 12.409 51.8649 12.4206L47.5073 13.0797L47.4922 13.0816C47.4941 13.103 47.4979 13.1244 47.5017 13.1458C47.4941 13.2488 47.4922 13.3499 47.4922 13.4549C47.4922 16.4703 50.3777 18.9121 53.9395 18.9121C54.8168 18.9121 55.6542 18.7643 56.4177 18.4941C56.4196 18.4921 56.4234 18.4921 56.4253 18.4921C57.8993 18.0411 59.0152 17.0788 59.6802 15.9395C59.6916 15.922 59.7011 15.9045 59.7105 15.887C60.1008 15.1988 60.332 14.4503 60.3793 13.7115C60.3812 13.659 60.3831 13.6085 60.385 13.556C60.3869 13.523 60.3869 13.488 60.3869 13.4549C60.3869 13.4063 60.385 13.3597 60.385 13.313Z"
		fill="white"
	/>
	<path
		d="M36.208 0.928955V10.1149L26.3807 0.936732H26.3333L24.8896 0.928955V18.7974H29.3249L29.27 9.88554L39.1883 18.7974L40.7134 18.7916V18.7974V0.928955H36.208Z"
		fill="white"
	/>
	<path
		d="M101.309 5.07201V0.639404C101.309 0.639404 93.2888 0.639404 89.187 0.639404C89.187 6.02852 89.187 18.8092 89.187 18.8092H101.309V14.3941C101.309 14.3941 96.3145 14.3941 93.7909 14.3941C93.7909 13.5581 93.7909 12.7785 93.7909 11.9484C95.767 11.9484 97.7033 11.9484 99.6301 11.9484C99.6301 10.4611 99.6301 9.02831 99.6301 7.53716C97.6654 7.53716 95.7291 7.53716 93.7777 7.53716C93.7777 6.69536 93.7777 5.91576 93.7777 5.07396C96.3468 5.07201 101.309 5.07201 101.309 5.07201Z"
		fill="white"
	/>
	<path
		d="M10.6553 0.47998H9.30633L0 17.4697L0.670692 18.6614H8.72279V14.6468H6.73155L6.49472 14.2619L9.99786 7.64797L13.5199 14.2949L13.304 14.6468H11.2938V18.6614H19.4027L20.0147 17.5708L10.6553 0.47998Z"
		fill="white"
	/>
	<path
		d="M5.45837 36.723L3.69828 34.2111C3.4804 34.2263 3.30988 34.2339 3.18484 34.2339H1.16708V36.723H0V28.5417H3.18295C4.24014 28.5417 5.07187 28.7943 5.67815 29.3012C6.28442 29.8081 6.58756 30.505 6.58756 31.3935C6.58756 32.0239 6.4322 32.5612 6.12149 33.0055C5.81077 33.4498 5.36743 33.7725 4.79147 33.9757L6.72776 36.7211H5.45837V36.723ZM4.83884 32.7605C5.22723 32.4416 5.42238 31.9859 5.42238 31.3935C5.42238 30.8011 5.22913 30.3474 4.83884 30.0322C4.45044 29.717 3.88585 29.5594 3.14884 29.5594H1.16708V33.2409H3.14884C3.88774 33.2409 4.45044 33.0814 4.83884 32.7605Z"
		fill="white"
	/>
	<path
		d="M18.7547 36.2731C18.0935 35.9104 17.5744 35.4111 17.1973 34.7712C16.8203 34.1333 16.6309 33.4194 16.6309 32.6334C16.6309 31.8473 16.8184 31.1334 17.1973 30.4955C17.5744 29.8575 18.0935 29.3563 18.7547 28.9936C19.4159 28.6291 20.1586 28.4487 20.9828 28.4487C21.7994 28.4487 22.5383 28.6291 23.1976 28.9917C23.8588 29.3544 24.376 29.8518 24.7493 30.4879C25.1225 31.1239 25.3082 31.8378 25.3082 32.6315C25.3082 33.4251 25.1225 34.1409 24.7493 34.775C24.376 35.4111 23.8588 35.9085 23.1976 36.2712C22.5364 36.6338 21.7975 36.8142 20.9828 36.8142C20.1586 36.8161 19.4159 36.6357 18.7547 36.2731ZM22.597 35.3674C23.0744 35.094 23.4515 34.7181 23.7281 34.2396C24.0047 33.7612 24.143 33.2257 24.143 32.6334C24.143 32.041 24.0047 31.5056 23.7281 31.0271C23.4515 30.5486 23.0744 30.1727 22.597 29.8993C22.1195 29.6259 21.5796 29.4911 20.9828 29.4911C20.3841 29.4911 19.8422 29.6278 19.3553 29.8993C18.8703 30.1727 18.4876 30.5486 18.2129 31.0271C17.9362 31.5056 17.7998 32.0429 17.7998 32.6334C17.7998 33.2257 17.9381 33.7612 18.2129 34.2396C18.4895 34.7181 18.8703 35.094 19.3553 35.3674C19.8403 35.6408 20.3841 35.7756 20.9828 35.7756C21.5815 35.7756 22.1195 35.6408 22.597 35.3674Z"
		fill="white"
	/>
	<path
		d="M42.5057 33.1991C42.7785 33.5466 42.913 33.9833 42.913 34.513C42.913 35.2212 42.6459 35.768 42.1135 36.1496C41.5811 36.5313 40.8062 36.723 39.7869 36.723H35.8916V28.5417H39.5539C40.486 28.5417 41.2079 28.7297 41.7175 29.1018C42.2272 29.4759 42.4811 29.9942 42.4811 30.6568C42.4811 31.0859 42.3825 31.4562 42.1836 31.7676C41.9847 32.0789 41.7194 32.3163 41.3841 32.4795C41.8596 32.6125 42.2329 32.8517 42.5057 33.1991ZM37.0587 29.4892V32.1074H39.4497C40.0484 32.1074 40.5088 31.9973 40.8308 31.7751C41.1529 31.553 41.314 31.2283 41.314 30.7992C41.314 30.3701 41.1529 30.0455 40.8308 29.8233C40.5088 29.6012 40.0484 29.4911 39.4497 29.4911H37.0587V29.4892ZM41.2344 35.449C41.5678 35.2307 41.7365 34.8889 41.7365 34.42C41.7365 33.5086 41.0715 33.0529 39.7414 33.0529H37.0587V35.7756H39.7414C40.4027 35.7756 40.8991 35.6674 41.2344 35.449Z"
		fill="white"
	/>
	<path
		d="M55.0286 36.2731C54.3674 35.9104 53.8483 35.4111 53.4713 34.7712C53.0943 34.1333 52.9048 33.4194 52.9048 32.6334C52.9048 31.8473 53.0924 31.1334 53.4713 30.4955C53.8483 29.8575 54.3674 29.3563 55.0286 28.9936C55.6899 28.6291 56.4326 28.4487 57.2567 28.4487C58.0733 28.4487 58.8122 28.6291 59.4715 28.9917C60.1327 29.3544 60.65 29.8518 61.0232 30.4879C61.3964 31.1239 61.5821 31.8378 61.5821 32.6315C61.5821 33.4251 61.3964 34.1409 61.0232 34.775C60.65 35.4111 60.1327 35.9085 59.4715 36.2712C58.8103 36.6338 58.0714 36.8142 57.2567 36.8142C56.4326 36.8161 55.6899 36.6357 55.0286 36.2731ZM58.8728 35.3674C59.3503 35.094 59.7273 34.7181 60.0039 34.2396C60.2805 33.7612 60.4188 33.2257 60.4188 32.6334C60.4188 32.041 60.2805 31.5056 60.0039 31.0271C59.7273 30.5486 59.3503 30.1727 58.8728 29.8993C58.3954 29.6259 57.8554 29.4911 57.2586 29.4911C56.6599 29.4911 56.118 29.6278 55.6311 29.8993C55.1461 30.1727 54.7634 30.5486 54.4887 31.0271C54.2121 31.5056 54.0757 32.0429 54.0757 32.6334C54.0757 33.2257 54.214 33.7612 54.4887 34.2396C54.7653 34.7181 55.1461 35.094 55.6311 35.3674C56.1162 35.6408 56.6599 35.7756 57.2586 35.7756C57.8554 35.7756 58.3935 35.6408 58.8728 35.3674Z"
		fill="white"
	/>
	<path
		d="M73.5469 29.5594H70.7485V28.5417H77.5009V29.5594H74.7026V36.723H73.5488V29.5594H73.5469Z"
		fill="white"
	/>
	<path d="M87.5898 28.5417H88.755V36.723H87.5898V28.5417Z" fill="white" />
	<path
		d="M101.466 36.2731C100.808 35.9104 100.293 35.413 99.9198 34.7769C99.5465 34.1428 99.3608 33.427 99.3608 32.6334C99.3608 31.8397 99.5484 31.1239 99.9198 30.4898C100.293 29.8556 100.81 29.3563 101.471 28.9936C102.131 28.6291 102.87 28.4487 103.686 28.4487C104.323 28.4487 104.906 28.5551 105.435 28.7696C105.964 28.9841 106.414 29.3012 106.788 29.7227L106.03 30.4594C105.416 29.812 104.651 29.4892 103.732 29.4892C103.125 29.4892 102.578 29.6259 102.087 29.8974C101.596 30.1708 101.214 30.5467 100.939 31.0252C100.662 31.5037 100.524 32.041 100.524 32.6315C100.524 33.2238 100.662 33.7593 100.939 34.2377C101.216 34.7162 101.598 35.0921 102.087 35.3655C102.578 35.6389 103.125 35.7737 103.732 35.7737C104.641 35.7737 105.407 35.4472 106.03 34.7921L106.788 35.5288C106.414 35.9503 105.962 36.2693 105.429 36.4876C104.897 36.706 104.311 36.8142 103.675 36.8142C102.858 36.8161 102.121 36.6357 101.466 36.2731Z"
		fill="white"
	/>
	<path
		d="M118.062 36.5294C117.49 36.3377 117.041 36.0908 116.715 35.7871L117.147 34.8757C117.458 35.1567 117.856 35.3846 118.343 35.5592C118.828 35.7339 119.328 35.8231 119.841 35.8231C120.518 35.8231 121.024 35.7073 121.357 35.4776C121.691 35.2478 121.859 34.9422 121.859 34.5605C121.859 34.2795 121.768 34.0517 121.584 33.877C121.403 33.7023 121.177 33.5675 120.908 33.4745C120.639 33.3815 120.26 33.2752 119.771 33.1593C119.157 33.0112 118.661 32.8631 118.284 32.715C117.907 32.567 117.585 32.3391 117.316 32.0315C117.047 31.724 116.914 31.3082 116.914 30.7879C116.914 30.3512 117.028 29.9582 117.259 29.607C117.488 29.2557 117.837 28.9766 118.303 28.7659C118.769 28.5551 119.349 28.4507 120.04 28.4507C120.522 28.4507 120.997 28.5133 121.463 28.6386C121.929 28.764 122.329 28.9424 122.664 29.176L122.28 30.1101C121.937 29.8918 121.573 29.7266 121.183 29.6127C120.794 29.5006 120.414 29.4437 120.04 29.4437C119.379 29.4437 118.885 29.5652 118.553 29.8063C118.223 30.0474 118.057 30.3588 118.057 30.7405C118.057 31.0215 118.15 31.2493 118.337 31.424C118.525 31.5986 118.756 31.7353 119.031 31.8322C119.307 31.929 119.682 32.0334 120.156 32.1417C120.77 32.2898 121.264 32.4378 121.638 32.5859C122.011 32.734 122.331 32.96 122.6 33.2638C122.869 33.5675 123.002 33.9777 123.002 34.4903C123.002 34.9194 122.884 35.3105 122.651 35.6656C122.418 36.0206 122.064 36.3016 121.59 36.5067C121.117 36.7136 120.533 36.8161 119.841 36.8161C119.226 36.8161 118.633 36.7212 118.062 36.5294Z"
		fill="white"
	/>
</svg>
